<?xml version="1.0" encoding="UTF-8"?>
<svg xmlns="http://www.w3.org/2000/svg" width="1280" height="720" viewBox="0 0 1280 720" font-family="Helvetica, Arial, sans-serif">
  <defs>
    <marker id="arrow" viewBox="0 0 10 10" refX="9" refY="5" markerWidth="8" markerHeight="8" orient="auto-start-reverse">
      <path d="M 0 0 L 10 5 L 0 10 z" fill="#444"/>
    </marker>
    <marker id="arrow-loop" viewBox="0 0 10 10" refX="9" refY="5" markerWidth="8" markerHeight="8" orient="auto-start-reverse">
      <path d="M 0 0 L 10 5 L 0 10 z" fill="#9673a6"/>
    </marker>
  </defs>
  <rect width="100%" height="100%" fill="#ffffff"/>
<text x="640.0" y="36" text-anchor="middle" font-size="22" font-weight="bold" fill="#1a1a1a">Search loop — feature generation</text><rect x="60" y="90" width="220" height="80" rx="10" ry="10" fill="#fff2cc" stroke="#d6b656" stroke-width="2"/><text x="170.0" y="121.0" text-anchor="middle" alignment-baseline="middle" font-size="14" font-weight="bold" fill="#222">Raw tables</text><text x="170.0" y="139.0" text-anchor="middle" alignment-baseline="middle" font-size="14" font-weight="normal" fill="#222">+ instruction.md</text><rect x="360" y="90" width="220" height="80" rx="10" ry="10" fill="#e1d5e7" stroke="#9673a6" stroke-width="2"/><text x="470.0" y="121.0" text-anchor="middle" alignment-baseline="middle" font-size="14" font-weight="bold" fill="#222">Setup Agent</text><text x="470.0" y="139.0" text-anchor="middle" alignment-baseline="middle" font-size="14" font-weight="normal" fill="#222">(LLM)</text><rect x="660" y="90" width="220" height="80" rx="10" ry="10" fill="#dae8fc" stroke="#6c8ebf" stroke-width="2"/><text x="770.0" y="121.0" text-anchor="middle" alignment-baseline="middle" font-size="14" font-weight="bold" fill="#222">Lane Builder</text><text x="770.0" y="139.0" text-anchor="middle" alignment-baseline="middle" font-size="14" font-weight="normal" fill="#222">8 lane types</text><line x1="280" y1="130" x2="360" y2="130" stroke="#444" stroke-width="2" marker-end="url(#arrow)"/><line x1="580" y1="130" x2="660" y2="130" stroke="#444" stroke-width="2" marker-end="url(#arrow)"/><text x="620.0" y="124.0" text-anchor="middle" font-size="11" fill="#555">task contract</text><rect x="60" y="220" width="1160" height="380" rx="12" ry="12" fill="none" stroke="#888" stroke-width="2" stroke-dasharray="6 6"/><text x="74" y="242" font-size="13" font-weight="bold" fill="#666">Search round  ×  N</text><rect x="100" y="290" width="220" height="110" rx="10" ry="10" fill="#e1d5e7" stroke="#9673a6" stroke-width="2"/><text x="210.0" y="336.0" text-anchor="middle" alignment-baseline="middle" font-size="14" font-weight="bold" fill="#222">Worker Brain</text><text x="210.0" y="354.0" text-anchor="middle" alignment-baseline="middle" font-size="14" font-weight="normal" fill="#222">(LLM)</text><rect x="380" y="290" width="220" height="110" rx="10" ry="10" fill="#dae8fc" stroke="#6c8ebf" stroke-width="2"/><text x="490.0" y="336.0" text-anchor="middle" alignment-baseline="middle" font-size="14" font-weight="bold" fill="#222">Materialize</text><text x="490.0" y="354.0" text-anchor="middle" alignment-baseline="middle" font-size="14" font-weight="normal" fill="#222">(DuckDB)</text><rect x="660" y="290" width="220" height="110" rx="10" ry="10" fill="#dae8fc" stroke="#6c8ebf" stroke-width="2"/><text x="770.0" y="336.0" text-anchor="middle" alignment-baseline="middle" font-size="14" font-weight="bold" fill="#222">Evaluate</text><text x="770.0" y="354.0" text-anchor="middle" alignment-baseline="middle" font-size="14" font-weight="normal" fill="#222">uni + set-level</text><rect x="940" y="290" width="220" height="110" rx="10" ry="10" fill="#dae8fc" stroke="#6c8ebf" stroke-width="2"/><text x="1050.0" y="336.0" text-anchor="middle" alignment-baseline="middle" font-size="14" font-weight="bold" fill="#222">Controller</text><text x="1050.0" y="354.0" text-anchor="middle" alignment-baseline="middle" font-size="14" font-weight="normal" fill="#222">stop / next round</text><path d="M 770 170 L 490.0 170 L 490.0 290 L 210 290" fill="none" stroke="#444" stroke-width="2" marker-end="url(#arrow)"/><line x1="320" y1="345" x2="380" y2="345" stroke="#444" stroke-width="2" marker-end="url(#arrow)"/><line x1="600" y1="345" x2="660" y2="345" stroke="#444" stroke-width="2" marker-end="url(#arrow)"/><line x1="880" y1="345" x2="940" y2="345" stroke="#444" stroke-width="2" marker-end="url(#arrow)"/><path d="M 1050 290 C 1050 210, 210 210, 210 290" fill="none" stroke="#9673a6" stroke-width="2" marker-end="url(#arrow-loop)"/><text x="630.0" y="284.0" text-anchor="middle" font-size="11" fill="#555">next round</text><ellipse cx="620.0" cy="472" rx="130.0" ry="12" fill="#d5e8d4" stroke="#82b366" stroke-width="2"/><path d="M 490 472 L 490 558 A 130.0 12 0 0 0 750 558 L 750 472 Z" fill="#d5e8d4" stroke="#82b366" stroke-width="2"/><ellipse cx="620.0" cy="472" rx="130.0" ry="12" fill="none" stroke="#82b366" stroke-width="2"/><text x="620.0" y="506.0" text-anchor="middle" alignment-baseline="middle" font-size="14" font-weight="bold" fill="#222">store.sqlite</text><text x="620.0" y="524.0" text-anchor="middle" alignment-baseline="middle" font-size="14" font-weight="normal" fill="#222">(features, evaluations)</text><path d="M 490 400 L 515.0 400 L 515.0 460 L 540 460" fill="none" stroke="#444" stroke-width="2" marker-end="url(#arrow)"/><path d="M 770 400 L 735.0 400 L 735.0 460 L 700 460" fill="none" stroke="#444" stroke-width="2" marker-end="url(#arrow)"/><rect x="60" y="660" width="14" height="14" fill="#e1d5e7" stroke="#9673a6" stroke-width="1.5"/><text x="80" y="672" font-size="12" fill="#444">LLM</text><rect x="108" y="660" width="14" height="14" fill="#dae8fc" stroke="#6c8ebf" stroke-width="1.5"/><text x="128" y="672" font-size="12" fill="#444">Compute</text><rect x="188" y="660" width="14" height="14" fill="#d5e8d4" stroke="#82b366" stroke-width="1.5"/><text x="208" y="672" font-size="12" fill="#444">Store</text><rect x="252" y="660" width="14" height="14" fill="#fff2cc" stroke="#d6b656" stroke-width="1.5"/><text x="272" y="672" font-size="12" fill="#444">I/O</text></svg>
